{"title":"Raoul Ruiz - La Ville des pirates AKA City of Pirates (1984) ","uid":8915174,"size":2889916457,"categoryP":"video","categoryS":"movies","magnet":"?xt=urn:btih:7170c5b55e8b4aef3d84d12fbe57066b33dbdccf&amp;dn=Raoul+Ruiz+-+La+Ville+des+pirates+AKA+City+of+Pirates+%281984%29+&amp;tr=udp%3A%2F%2Ftracker.openbittorrent.com%3A80&amp;tr=udp%3A%2F%2Fopen.demonii.com%3A1337&amp;tr=udp%3A%2F%2Ftracker.coppersurfer.tk%3A6969&amp;tr=udp%3A%2F%2Fexodus.desync.com%3A6969","seeders":5,"leechers":0,"uploader":"moonflux","files":1,"time":1379125926,"description":"Unique ID : 95940289570946405954752500007837684065 (0x482D6D7AD9824CFEEB63E11FEC6CD161)\nComplete name : La.ville.des.pirates.AKA.City.of.Pirates.1983.DVDRip.x264-HANDJOB.mkv\nFormat : Matroska\nFormat version : Version 2\nFile size : 2.69 GiB\nDuration : 1h 48mn\nOverall bit rate : 3 563 Kbps\nWriting application : HandBrake 4907svn\nWriting library : libmkv 0.6.5\n\nVideo\nID : 1\nFormat : AVC\nFormat/Info : Advanced Video Codec\nFormat profile : &lt;a class=&quot;__cf_email__&quot; href=&quot;/cdn-cgi/l/email-protection&quot; data-cfemail=&quot;b3fbdad4dbf3ff809d82&quot;&gt;[email&amp;#160;protected]&lt;/a&gt;&lt;script cf-hash='f9e31' type=&quot;text/javascript&quot;&gt;\n/* &lt;![CDATA[ */!function(){try{var t=&quot;currentScript&quot;in document?document.currentScript:function(){for(var t=document.getElementsByTagName(&quot;script&quot;),e=t.length;e--;)if(t[e].getAttribute(&quot;cf-hash&quot;))return t[e]}();if(t&amp;&amp;t.previousSibling){var e,r,n,i,c=t.previousSibling,a=c.getAttribute(&quot;data-cfemail&quot;);if(a){for(e=&quot;&quot;,r=parseInt(a.substr(0,2),16),n=2;a.length-n;n+=2)i=parseInt(a.substr(n,2),16)^r,e+=String.fromCharCode(i);e=document.createTextNode(e),c.parentNode.replaceChild(e,c)}}}catch(u){}}();/* ]]&gt; */&lt;/script&gt;\nFormat settings, CABAC : Yes\nFormat settings, ReFrames : 9 frames\nCodec ID : V_MPEG4/ISO/AVC\nDuration : 1h 48mn\nBit rate : 3 300 Kbps\nWidth : 720 pixels\nHeight : 544 pixels\nDisplay aspect ratio : 4:3\nFrame rate mode : Variable\nFrame rate : 25.000 fps\nColor space : YUV\nChroma subsampling : 4:2:0\nBit depth : 8 bits\nScan type : Progressive\nBits/(Pixel*Frame) : 0.337\nStream size : 2.49 GiB (93%)\nWriting library : x264 core 125\nEncoding settings : cabac=1 // deblock=1:-2:-2 / analyse=0x3:0x133 / me=umh / subme=9 / psy=1 / psy_rd=1.00:0.00 // me_range=24 / chroma_me=1 / trellis=2 / 8x8dct=1 / cqm=0 / deadzone=21,11 / fast_pskip=0 / chroma_qp_offset=-2 / threads=6 / lookahead_threads=1 / sliced_threads=0 / nr=0 / decimate=1 / interlaced=0 / bluray_compat=0 / constrained_intra=0 / bframes=6 / b_pyramid=2 / b_adapt=2 / b_bias=0 / direct=3 / weightb=1 / open_gop=0 / weightp=2 / keyint=250 / keyint_min=25 / scenecut=40 / intra_refresh=0 / rc_lookahead=50 / rc=crf / mbtree=1 / crf=18.5 / qcomp=0.60 / qpmin=3 / qpmax=69 / qpstep=4 / ip_ratio=1.40 / aq=1:1.20\nLanguage : English\nColor primaries : BT.470-6 System B, BT.470-6 System G, BT.601-6 625, BT.1358 625, BT.1700 625 PAL, BT.1700 625 SECAM\nTransfer characteristics : BT.709-5, BT.1361\nMatrix coefficients : BT.601-6 525, BT.1358 525, BT.1700 NTSC, SMPTE 170M\n\nAudio\nID : 2\nFormat : AC-3\nFormat/Info : Audio Coding 3\nMode extension : CM (complete main)\nCodec ID : A_AC3\nDuration : 1h 48mn\nBit rate mode : Constant\nBit rate : 192 Kbps\nChannel(s) : 2 channels\nChannel positions : Front: L R\nSampling rate : 48.0 KHz\nBit depth : 16 bits\nCompression mode : Lossy\nStream size : 149 MiB (5%)\nLanguage : French\n\nText #1\nID : 3\nFormat : VobSub\nCodec ID : S_VOBSUB\nCodec ID/Info : The same subtitle format used on DVDs\nLanguage : Portuguese\n\nText #2\nID : 4\nFormat : VobSub\nCodec ID : S_VOBSUB\nCodec ID/Info : The same subtitle format used on DVDs\nLanguage : English\n\nText #3\nID : 5\nFormat : VobSub\nCodec ID : S_VOBSUB\nCodec ID/Info : The same subtitle format used on DVDs\nLanguage : French\n\nMenu\n00:00:00.000 : Chapter 1\n00:08:34.680 : Chapter 2\n00:17:59.280 : Chapter 3\n00:28:45.680 : Chapter 4\n00:37:09.840 : Chapter 5\n00:48:55.760 : Chapter 6\n01:01:32.960 : Chapter 7\n01:07:54.040 : Chapter 8\n01:19:33.920 : Chapter 9\n01:29:52.640 : Chapter 10\n01:40:05.200 : Chapter 11\n01:46:55.640 : Chapter 12\n","torrent":{"xt":"urn:btih:7170c5b55e8b4aef3d84d12fbe57066b33dbdccf","amp;dn":"Raoul+Ruiz+-+La+Ville+des+pirates+AKA+City+of+Pirates+%281984%29+","amp;tr":["udp%3A%2F%2Ftracker.openbittorrent.com%3A80","udp%3A%2F%2Fopen.demonii.com%3A1337","udp%3A%2F%2Ftracker.coppersurfer.tk%3A6969","udp%3A%2F%2Fexodus.desync.com%3A6969"],"infoHash":"7170c5b55e8b4aef3d84d12fbe57066b33dbdccf","infoHashBuffer":{"type":"Buffer","data":[113,112,197,181,94,139,74,239,61,132,209,47,190,87,6,107,51,219,220,207]},"announce":[],"urlList":[]}}